<svg width="449" height="94" viewBox="0 0 449 94" fill="none" xmlns="http://www.w3.org/2000/svg">
<g filter="url(#filter0_d_103_16)">
<path d="M103.229 77.9375L95 69.7087V58.1175H106.149V65.1076L107.83 66.7888H116.855L118.536 65.1076V54.2243L116.855 52.5431H103.229L95 44.3143V24.2289L103.229 16H121.456L129.685 24.2289V35.82H118.536V28.8299L116.855 27.1488H107.83L106.149 28.8299V39.7132L107.83 41.3944H121.456L129.685 49.6232V69.7087L121.456 77.9375H103.229ZM140.108 77.9375V68.0275L141.966 66.7888V27.1488L140.108 25.91V16H172.316V29.0069H162.406L161.167 27.1488H153.115V41.3944H167.361V52.5431H153.115V66.7888H161.167L162.406 64.9306H172.316V77.9375H140.108ZM182.739 77.9375V68.0275L184.597 66.7888V27.1488L182.739 25.91V16H197.604V25.91L195.746 27.1488V66.7888H201.94L203.178 64.9306H213.088V77.9375H182.739ZM223.511 77.9375V68.0275L225.37 66.7888V27.1488L223.511 25.91V16H238.376V25.91L236.518 27.1488V66.7888H242.712L243.951 64.9306H253.861V77.9375H223.511ZM262.514 77.9375V68.0275L264.373 66.7888L272.424 27.1488L270.566 25.91V16H294.103V25.91L292.244 27.1488L300.296 66.7888L302.154 68.0275V77.9375H291.183L288.44 64.3113H276.229L273.486 77.9375H262.514ZM278.53 53.1625H286.139L282.334 34.2273L278.53 53.1625ZM320.895 77.9375L312.666 69.7087V27.1488L310.808 25.91V16H325.673V25.91L323.815 27.1488V65.1076L325.496 66.7888H335.76L337.441 65.1076V27.1488L335.583 25.91V16H350.448V25.91L348.59 27.1488V69.7087L340.361 77.9375H320.895ZM372.02 77.9375V68.0275L373.878 66.7888V27.1488H372.02L370.781 29.0069H360.871V16H398.034V29.0069H388.124L386.885 27.1488H385.027V66.7888L386.885 68.0275V77.9375H372.02ZM416.686 77.9375L408.457 69.7087V24.2289L416.686 16H436.771L445 24.2289V69.7087L436.771 77.9375H416.686ZM421.287 66.7888H432.17L433.851 65.1076V28.8299L432.17 27.1488H421.287L419.606 28.8299V65.1076L421.287 66.7888Z" fill="#C6C6C6"/>
</g>
<path d="M27.065 7.764L0 23.389V35.51L27.065 19.884L54.129 35.51V23.389L27.065 7.764ZM53.66 85.845L26.595 70.22V58.101L53.66 73.726L80.724 58.101V70.22L53.66 85.845Z" fill="url(#paint0_linear_103_16)"/>
<path d="M0 38.765L27.065 23.139L37.56 29.199L10.496 44.825V76.077L0 70.017V38.765ZM67.445 15.625L40.38 0L29.884 6.06L56.948 21.685V52.937L67.445 46.877V15.625Z" fill="url(#paint1_linear_103_16)"/>
<path d="M13.372 77.88L13.373 46.629L23.869 40.569V71.821L50.933 87.446L40.437 93.507L13.372 77.88ZM80.724 54.845V23.593L70.228 17.533V48.784L43.164 64.411L53.66 70.472L80.724 54.845Z" fill="url(#paint2_linear_103_16)"/>
<defs>
<filter id="filter0_d_103_16" x="91" y="16" width="358" height="69.9375" filterUnits="userSpaceOnUse" color-interpolation-filters="sRGB">
<feFlood flood-opacity="0" result="BackgroundImageFix"/>
<feColorMatrix in="SourceAlpha" type="matrix" values="0 0 0 0 0 0 0 0 0 0 0 0 0 0 0 0 0 0 127 0" result="hardAlpha"/>
<feOffset dy="4"/>
<feGaussianBlur stdDeviation="2"/>
<feComposite in2="hardAlpha" operator="out"/>
<feColorMatrix type="matrix" values="0 0 0 0 0 0 0 0 0 0 0 0 0 0 0 0 0 0 0.25 0"/>
<feBlend mode="normal" in2="BackgroundImageFix" result="effect1_dropShadow_103_16"/>
<feBlend mode="normal" in="SourceGraphic" in2="effect1_dropShadow_103_16" result="shape"/>
</filter>
<linearGradient id="paint0_linear_103_16" x1="-3.19575" y1="90.3112" x2="83.9198" y2="3.19575" gradientUnits="userSpaceOnUse">
<stop offset="0.05" stop-color="white"/>
<stop offset="0.95" stop-color="#747474"/>
</linearGradient>
<linearGradient id="paint1_linear_103_16" x1="-3.19575" y1="90.3112" x2="83.9197" y2="3.19575" gradientUnits="userSpaceOnUse">
<stop offset="0.05" stop-color="#FEFEFE"/>
<stop offset="0.95" stop-color="#747474"/>
</linearGradient>
<linearGradient id="paint2_linear_103_16" x1="-3.19574" y1="90.3112" x2="83.9198" y2="3.19575" gradientUnits="userSpaceOnUse">
<stop offset="0.05" stop-color="white"/>
<stop offset="0.95" stop-color="#747474"/>
</linearGradient>
</defs>
</svg>
